<svg xmlns="http://www.w3.org/2000/svg" viewBox="0 0 32 32" fill="none">
  <defs>
    <linearGradient id="brand-grad" x1="0" y1="0" x2="32" y2="32" gradientUnits="userSpaceOnUse">
      <stop stop-color="#2A3356" class="grad-1"/>
      <stop offset="1" stop-color="#00CC9C" class="grad-2"/>
    </linearGradient>
    <style>
      .icon-path { fill: #2A3356; }
      @media (prefers-color-scheme: dark) {
        .icon-path { fill: #00CC9C; }
      }
    </style>
  </defs>
  <!-- Gear + Brain Combo -->
  <path class="icon-path" d="M16 4C14.89 4 13.82 4.19 12.83 4.54L11.5 2L9.5 3L10.83 5.54C9.17 6.47 7.78 7.84 6.85 9.5L4.31 8.17L3.31 10.17L5.85 11.5C5.5 12.49 5.31 13.56 5.31 14.67C5.31 15.78 5.5 16.85 5.85 17.84L3.31 19.17L4.31 21.17L6.85 19.84C7.78 21.5 9.17 22.87 10.83 23.8L9.5 26.34L11.5 27.34L12.83 24.81C13.82 25.16 14.89 25.35 16 25.35V4Z"/>
  <path class="icon-path" d="M16 4V25.35C18.12 25.35 20.12 24.77 21.84 23.8L23.17 26.34L25.17 25.34L23.84 22.8C25.5 21.87 26.89 20.5 27.82 18.84L30.36 20.17L31.36 18.17L28.82 16.84C29.17 15.85 29.36 14.78 29.36 13.67C29.36 12.56 29.17 11.49 28.82 10.5L31.36 9.17L30.36 7.17L27.82 8.5C26.89 6.84 25.5 5.47 23.84 4.54L25.17 2L23.17 1L21.84 3.54C20.12 2.57 18.12 2 16 2V4Z" opacity="0.9"/>
  <!-- Inner Brain Detail -->
  <path d="M19 9C21 9 23 11 23 13.67C23 16.34 21 18.34 19 18.34" stroke="white" stroke-width="1.5" stroke-linecap="round" opacity="0.5"/>
  <path d="M19 13.67H25" stroke="white" stroke-width="1" stroke-linecap="round" opacity="0.3"/>
</svg>
