<svg xmlns="http://www.w3.org/2000/svg" viewBox="0 0 100 100" fill="none">
  <style>
    .brand-icon { fill: #2A3356; }
    @media (prefers-color-scheme: dark) {
      .brand-icon { fill: #00CC9C; }
    }
  </style>
  <path class="brand-icon" d="m48.191 1.8691c-3.1142 0.015334-6.2271 0.33601-9.293 0.96289a1.2501 1.2501 0 0 0-0.88281 1.75l2e-3 0.00391a1.2501 1.2501 0 0 0 0.01172 0.025391c0.03219 0.065421 0.06341 0.13097 0.09375 0.19727v0.00195l0.0098 0.023437a1.2501 1.2501 0 0 0 0 0.00195c1.6677 3.9764-0.18476 8.5165-4.1582 10.191-3.9726 1.6725-8.5157-0.17161-10.197-4.1406-0.03144-0.08095-0.06113-0.16218-0.08984-0.24414a1.2501 1.2501 0 0 0-1.8809-0.62109c-5.1026 3.4633-9.4844 7.8858-12.898 13.021a1.2501 1.2501 0 0 0 0.49414 1.8145c1.6756 0.81775 3.0011 2.2093 3.7383 3.9219l0.02148 0.05273c1.6665 3.976-0.18565 8.5148-4.1582 10.189-1.7571 0.73729-3.7236 0.80577-5.5273 0.19141a1.2501 1.2501 0 0 0-1.6289 0.9375c-1.2352 6.1917-1.2235 12.568 0.03125 18.756a1.2501 1.2501 0 0 0 1.7812 0.87109c0.072803-0.03616 0.14485-0.0716 0.21875-0.10547l0.00391-2e-3c3.966-1.6854 8.5151 0.14326 10.211 4.1055l0.02148 0.05469c1.6661 3.9752-0.18538 8.512-4.1562 10.188l-0.00195 2e-3c-0.08948 0.0341-0.1808 0.06688-0.27148 0.09766a1.2501 1.2501 0 0 0-0.6329 1.8828c3.5139 5.1966 8.0206 9.6465 13.262 13.094a1.2501 1.2501 0 0 0 1.8359-0.54883c0.79234-1.837 2.2591-3.298 4.0996-4.082 3.9669-1.6885 8.5165 0.13996 10.213 4.1035l0.02344 0.05469c0.76858 1.8427 0.80119 3.9078 0.08984 5.7734a1.2501 1.2501 0 0 0 0.93164 1.6738c2.9386 0.56231 5.9165 0.83916 8.8945 0.8418v-2.6035c-2.411-9.2e-4 -4.8224-0.19101-7.2148-0.58203 0.42936-2.0299 0.41411-4.131-0.39453-6.0684a1.2501 1.2501 0 0 0-2e-3 -2e-3l-0.02539-0.0625a1.2501 1.2501 0 0 0-0.0039-0.0098c-2.2273-5.204-8.2818-7.6369-13.49-5.4199-1.9346 0.82406-3.4157 2.3231-4.5254 4.0801-4.174-2.9101-7.8066-6.498-10.779-10.627 4.4115-2.5506 6.4743-7.9342 4.4551-12.752l-0.02734-0.06445a1.2501 1.2501 0 0 0-0.0039-0.0078c-2.0467-4.782-7.3112-7.0412-12.195-5.6855-0.87459-5.0695-0.88271-10.233-0.0078125-15.303 1.9452 0.3495 3.9431 0.29695 5.7852-0.47656a1.2501 1.2501 0 0 0 0.00195 0c5.2159-2.1988 7.6822-8.2406 5.4941-13.461l-0.02734-0.06445a1.2501 1.2501 0 0 0-0.0039-0.0098c-0.76857-1.7856-2.1221-3.1825-3.7051-4.2754 2.8792-4.0944 6.4134-7.6597 10.471-10.59 2.5653 4.3884 7.9396 6.4304 12.744 4.4062 4.7997-2.0232 7.0887-7.2888 5.748-12.186 2.4879-0.43391 4.9932-0.76495 7.5098-0.77734 0.06579-3.24e-4 0.13149 0.00382 0.19726 0.00391v-2.5c-0.0703 3.52e-5 -0.14063-0.00425-0.21094-0.00391zm11.83 0.10938c-4.796 0-8.6028 4.1648-8.7461 9.1992v2e-3a1.2501 1.2501 0 0 0-0.0098 0.1543v0.05278c-2.12e-4 0.02697-0.0039 0.05306-0.0039 0.08008a1.2501 1.2501 0 0 0 0.0039 0.125l-0.01172 6.0625a1.2501 1.2501 0 0 0 0.02734 0.26953 1.2501 1.2501 0 0 0 0 0.0039c0.08762 2.7859 1.0895 5.3438 2.709 7.3105-1.6978 2.0335-2.7232 4.7062-2.7539 7.625a1.2501 1.2501 0 0 0-0.01172 0.17774l-0.04102 21.645a1.2501 1.2501 0 0 0 0 0.0078c-3.4e-5 0.0026 3.3e-5 0.0052 0 0.0078v0.16406a1.2501 1.2501 0 0 0 0.01758 0.21484 1.2501 1.2501 0 0 0 0 0.0078c0.05778 3.2163 1.3132 6.1365 3.3555 8.2129-2.113 2.1346-3.4004 5.1782-3.3984 8.4863v2e-3a1.2501 1.2501 0 0 0-0.0059 0.11914l-0.0293 15.314a1.2501 1.2501 0 0 0-2e-3 0.0918c0 0.01581 0.0019 0.03108 2e-3 0.04687v0.11523a1.2501 1.2501 0 0 0 0.01562 0.20508 1.2501 1.2501 0 0 0 0 2e-3c0.18061 4.999 3.973 9.1172 8.7441 9.1172 0.30556 0 0.60739-0.01592 0.9043-0.04883 2.0784-0.23037 3.9271-1.2476 5.3086-2.7578 0.35064-0.38331 0.66668-0.8019 0.95312-1.2441 0.49243 0.23417 0.9998 0.44246 1.5371 0.5918 5.3933 1.499 10.863-2.1252 12.191-7.873 0.054-0.23368 0.08958-0.46728 0.12891-0.70117 4.827 1.822 10.374-0.26404 13.035-5.1699 2.1169-3.9026 1.9514-8.5571-0.07617-12.189 1.3914-1.2468 2.581-2.8037 3.4707-4.6309 3.3427-6.8652 1.4167-15.253-4.334-19.629 0.70633-1.5495 1.1191-3.2793 1.1191-5.1152 0-5.6542-3.7885-10.445-8.8418-11.391 2.1128-5.4426 0.60707-11.912-4.0059-15.545-2.6745-2.1063-5.9142-2.8138-8.9609-2.2676-1.2608 0.22605-2.4839 0.67724-3.625 1.3223-0.025-0.19258-0.04446-0.38719-0.08008-0.57617-0.80802-4.2879-4.308-7.5978-8.5858-7.5978zm0 2.5c3.4072 0 6.2617 3.055 6.2617 6.9883a1.2501 1.2501 0 0 0 0.06836 0.41992c-0.67761 0.64432-1.3023 1.3704-1.8438 2.1973a1.2506 1.2506 0 0 0 1.2324 1.9219 1.2506 1.2506 0 0 0 0.12109-0.02344 1.2506 1.2506 0 0 0 0.3457-0.14648 1.2506 1.2506 0 0 0 0.10156-0.07031 1.2506 1.2506 0 0 0 0.29102-0.31055c3.0922-4.7225 8.8669-5.7476 13.127-2.3926 4.26 3.3551 5.2719 10.002 2.1797 14.725-1.9345 2.9544-4.938 4.4072-7.9395 4.3086-0.06272-2.9047-1.193-5.7706-3.3672-7.8613 1.2274-1.8692 1.9613-4.1402 1.9844-6.582a1.2501 1.2501 0 1 0-2.5-0.02344c-0.04812 5.0843-3.7894 9.0274-8.2461 8.9766-4.4567-0.05072-8.1243-4.0837-8.0762-9.168a1.2501 1.2501 0 0 0-0.0039-0.125 1.2501 1.2501 0 0 0-0.0039-0.02539l0.0098-5.2676 2e-3 -0.63672c0.0408-3.8922 2.8733-6.9043 6.2559-6.9043zm8.9727 21.691c3.0118 3.0374 3.31 8.2876 0.59375 11.711-0.21591 0.27212-0.44244 0.52386-0.67969 0.75586-0.10769 0.1053-0.22439 0.19194-0.33594 0.28906-0.08673-0.12372-0.16629-0.25344-0.25781-0.37305-1.634-2.1356-4.022-3.6007-6.7988-3.8711a1.2501 1.2501 0 0 0-0.125-0.0059 1.2501 1.2501 0 0 0-0.11719 2.4941c4.0811 0.39739 7.2021 4.4037 6.8242 9.0723-0.05909 0.72991-0.20041 1.4268-0.41211 2.082a1.2501 1.2501 0 1 0 2.3789 0.76758c0.2711-0.83906 0.45074-1.7263 0.52539-2.6484 0.15063-1.8607-0.14637-3.6632-0.79492-5.2773 0.63285-0.49362 1.2236-1.0671 1.75-1.7305 1.1421-1.4394 1.8757-3.1061 2.2148-4.8359 3.9209 0.17071 7.8302-1.7656 10.238-5.4434 0.03413-0.05213 0.06042-0.10768 0.09375-0.16016 4.1686 0.35719 7.5293 4.1959 7.5293 9.0371 0 1.307-0.24752 2.5439-0.69141 3.6602-0.01719 0.04323-0.04082 0.08214-0.05859 0.125-1.5001-0.76234-3.0712-1.2304-4.6504-1.3867-1.5298-0.15143-3.0592-0.01371-4.5293 0.36719-0.47547-1.3301-1.3713-2.4984-2.6387-3.2598a1.2501 1.2501 0 0 0-0.71484-0.1875 1.2501 1.2501 0 0 0-0.57422 2.3301c1.6485 0.9904 2.322 3.4008 1.373 5.3008-0.14843 0.29718-0.32391 0.56033-0.51953 0.78906a1.2502 1.2502 0 1 0 1.9004 1.625c0.32996-0.38582 0.61759-0.82061 0.85547-1.2969 0.44863-0.8982 0.6735-1.8606 0.70312-2.8164 2.682-0.76641 5.5951-0.49158 8.252 1.0645 5.6123 3.2869 7.8033 11.085 4.7598 17.336-1.5086 3.0983-3.9802 5.1965-6.7539 6.1426-1.2483 0.42578-2.4849 0.31192-3.8145-0.38281-1.3295-0.69474-2.7206-2.0138-3.9766-3.9766a1.2501 1.2501 0 0 0-0.01953-0.0293c1.7522-1.3864 2.9222-3.5826 3.0254-6.0586a1.2501 1.2501 0 0 0-1.2148-1.3184 1.2501 1.2501 0 0 0-1.2832 1.2148c-0.12844 3.0812-2.4391 5.3233-5.0703 5.1914-0.41125-0.02064-0.80548-0.09809-1.1816-0.22461a1.2501 1.2501 0 1 0-0.79688 2.3691c0.588 0.19777 1.2107 0.31929 1.8535 0.35156 0.86599 0.0434 1.6969-0.08485 2.4766-0.3418a1.2501 1.2501 0 0 0 0.10547 0.19336c1.4302 2.2349 3.0888 3.8869 4.9238 4.8457 1.835 0.95884 3.8784 1.1796 5.7793 0.53125 0.93235-0.31802 1.8283-0.75133 2.6816-1.2734 1.4592 2.8423 1.5563 6.4753-0.07813 9.4883-2.2684 4.1818-6.8354 5.6461-10.689 3.7051-0.27214-4.5072-3.1287-8.5424-7.4258-9.7734 0.33999-2.075-0.08136-4.287-1.3359-6.1191a1.2501 1.2501 0 0 0-1.0605-0.55859 1.2501 1.2501 0 0 0-1.2168 1.4297 1.2501 1.2501 0 0 0 0.02344 0.12305 1.2501 1.2501 0 0 0 0.19141 0.41797c1.6558 2.418 1.1868 5.9275-0.97852 7.7109-0.33863 0.2789-0.69564 0.49861-1.0605 0.66406a1.2504 1.2504 0 1 0 1.0332 2.2773c0.56705-0.2571 1.1101-0.59572 1.6152-1.0117 0.86705-0.71413 1.5404-1.5913 2.0234-2.5566a1.2501 1.2501 0 0 0 0.02539 0.0078c3.9829 1.107 6.5011 5.6483 5.4531 10.184-0.98249 4.2518-4.6087 6.8014-8.3398 6.1914-0.24874-0.04067-0.49716-0.09487-0.74609-0.16406-0.39566-0.10996-0.76942-0.2628-1.1328-0.43555 0.33118-1.0002 0.51953-2.0701 0.51953-3.1836a1.2501 1.2501 0 1 0-2.5 0c0 3.6875-2.5081 6.6014-5.6289 6.9512-0.20806 0.02332-0.41791 0.03516-0.63086 0.03516-3.3935 0-6.2369-3.0291-6.2598-6.9395-9e-6 -0.0013 7e-6 -0.0026 0-0.0039l0.0293-14.943a1.2501 1.2501 0 0 0 0-0.20117c-0.21563-4.998 3.2118-9.1226 7.5645-9.4727 0.47721 1.2926 1.2717 2.4712 2.3809 3.3848 0.50509 0.416 1.0501 0.75266 1.6172 1.0098a1.2501 1.2501 0 1 0 1.0312-2.2773c-0.36491-0.16545-0.71996-0.38321-1.0586-0.66211-2.1653-1.7834-2.6343-5.2929-0.97852-7.7109a1.2501 1.2501 0 0 0-1.041-1.9707 1.2501 1.2501 0 0 0-1.0234 0.55859c-1.0728 1.5666-1.5368 3.4117-1.4375 5.2109-1.5166 0.16922-2.9268 0.67407-4.1738 1.4473-1.7559-1.68-2.8867-4.1879-2.8496-7.0059l0.01953-10.621 0.02148-10.908a1.2501 1.2501 0 0 0 2e-3 -0.10156c-0.0224-2.3545 0.7648-4.4942 2.0527-6.1094 1.701 1.3083 3.7733 2.0954 6.0312 2.1211 2.7709 0.03164 5.2801-1.0941 7.1836-2.9355zm-20.652 3.0156c-11.129 0.06192-20.133 9.1498-20.092 20.279 0.04117 11.099 9.0641 20.101 20.152 20.129v-2.502c-9.7401-0.02857-17.616-7.8857-17.652-17.637-0.03627-9.7801 7.8274-17.715 17.607-17.77 0.01517-8.4e-5 0.02977 2e-3 0.04492 2e-3v-2.5c-0.0203 5.3e-5 -0.04024-0.0021-0.06055-2e-3z"/>
</svg>
